<svg height="512pt" viewBox="0 -36 512.00044 512" width="512pt" xmlns="http://www.w3.org/2000/svg"><g fill-rule="evenodd"><path d="m114.097656 281.378906h278.492188c18.816406 0 34.234375-15.429687 34.234375-34.292968v-159.675782l-177.714844-53.300781-169.273437 52.136719v160.839844c0 18.859374 15.417968 34.292968 34.261718 34.292968zm0 0" fill="#546e7a"/><path d="m219.433594 140.371094-139.597656-32.652344v30.039062l139.597656 32.621094c16.183594 4.03125 25.054687 6.042969 33.894531 6.042969 8.871094 0 17.742187-2.011719 33.921875-6.042969l80.542969-18.832031c26.097656-6.101563 23.007812 11.230469 23.007812 36.875v46.066406l11.789063-3.09375c8.191406-2.15625 16.550781-1.671875 24.230468.996094v-124.671875l-18.902343 4.425781-45.710938 10.695313-74.957031 17.527344c-16.179688 4-25.050781 6.015624-33.921875 6.015624-8.839844 0-17.710937-2.011718-33.894531-6.011718zm0 0" fill="#37474f"/><path d="m483.585938 144.765625c-11.476563 0-20.859376 9.390625-20.859376 20.878906v32.792969c0 11.488281 9.382813 20.875 20.859376 20.875 11.476562 0 20.859374-9.386719 20.859374-20.875v-32.792969c0-11.488281-9.382812-20.878906-20.859374-20.878906zm0 0" fill="#ffd54f"/><path d="m253.328125 7.558594c-8.839844 0-17.710937 1.984375-33.894531 6.011718l-197.152344 46.097657c-10.855469 2.550781-15.191406 9.957031-14.683594 17.300781-.507812 7.347656 3.828125 14.753906 14.683594 17.304688l197.152344 46.097656c16.183594 4 25.054687 6.011718 33.894531 6.011718 8.871094 0 17.742187-2.011718 33.921875-6.011718l197.128906-46.097656c10.882813-2.550782 15.21875-9.957032 14.707032-17.304688.511718-7.34375-3.824219-14.75-14.707032-17.300781l-197.128906-46.097657c-16.179688-4.027343-25.050781-6.011718-33.921875-6.011718zm0 0" fill="#7c8c94"/><path d="m323.46875 22.023438c28.480469 18.183593 46.050781 43.144531 46.050781 70.660156 0 2.640625-.167969 5.25-.480469 7.800781-.9375 7.746094-3.257812 15.207031-6.832031 22.355469l45.710938-10.695313 76.460937-17.871093c.964844-.226563 1.839844-.480469 2.691406-.765626 8.898438-3.0625 12.46875-9.84375 12.015626-16.539062.511718-7.34375-3.824219-14.75-14.707032-17.300781zm0 0" fill="#546e7a"/><path d="m283.113281 262.828125c37.378907 12.734375 44.550781 83.28125 18.648438 98.542969l126.25-33.1875c24.03125-6.328125 37.832031-33.132813 30.804687-59.851563-7-26.722656-32.191406-43.261719-56.222656-36.933593zm0 0" fill="#eceff1"/><path d="m324.859375 355.300781-.058594.03125c.027344 0 .027344-.03125.058594-.03125zm-46.109375 12.140625-6.40625 26.578125c-6.855469 29.277344 9.378906 41.585938 28.792969 37.757813l30.835937-7.773438c27.234375-7.175781 28.421875-28.050781 14.933594-44.421875l-17.484375-19.828125-4.167969-4.539062-.394531.085937-.058594.027344zm0 0" fill="#e6a235"/><path d="m283.113281 262.828125 16.410157-4.339844 1.558593-6.640625 5.496094-25.867187c3.714844-20.878907-7.59375-38.496094-34.828125-31.316407l-30.519531 8.960938c-18.761719 6.242188-26.894531 24.964844-6.519531 47.0625l18.589843 19.96875 23.070313-6.070312zm0 0" fill="#e6a235"/><path d="m301.761719 361.371094c27.941406-15.457032 17.824219-90.429688-25.390625-96.785156l-141.359375 37.1875-51.179688 13.476562 25.589844 96.726562 51.011719-13.414062zm0 0" fill="#eceff1"/><path d="m251.0625 271.253906c43.246094 6.351563 53.332031 81.324219 25.421875 96.785156l2.265625-.597656 46.050781-12.109375.058594-.03125.394531-.082031.253906-.085938c25.902344-15.261718 18.734376-85.808593-18.644531-98.546874l-53.5625 14.070312zm0 0" fill="#ffd54f"/><path d="m140.058594 352.179688c-7.027344-26.71875-32.195313-43.257813-56.226563-36.929688-24.058593 6.324219-37.859375 33.128906-30.832031 59.851562 7.027344 26.71875 32.191406 43.257813 56.222656 36.933594 24.0625-6.324218 37.863282-33.132812 30.835938-59.855468zm0 0" fill="#90a4ae"/><path d="m140.058594 352.179688c-7.027344-26.71875-32.195313-43.257813-56.226563-36.929688-2.890625.765625-5.609375 1.8125-8.160156 3.117188 19.097656 1.703124 36.5 16.59375 42.136719 38.097656 6.179687 23.542968-3.765625 47.144531-22.667969 56.761718 4.648437.394532 9.378906.054688 14.082031-1.191406 24.0625-6.324218 37.863282-33.132812 30.835938-59.855468zm0 0" fill="#546e7a"/><path d="m291.84375 338.394531-152.15625 42.917969c-4.417969 14.808594-15.359375 26.664062-30.265625 30.664062l51.011719-13.417968 116.050781-30.519532c9.09375-5.050781 14.167969-16.398437 15.359375-29.644531zm0 0" fill="#c4cccf"/><path d="m291.84375 338.394531c-1.191406 13.246094-6.265625 24.59375-15.359375 29.644531l2.265625-.597656 23.011719-6.070312 23.039062-6.039063c9.945313-2.613281 14.960938-21.730469 15.785157-30.695312-16.238282 4.566406-32.503907 9.164062-48.742188 13.757812zm0 0" fill="#e6a235"/><path d="m432.945312 275.136719c6.402344 24.339843-14.992187 27.660156-34.152343 33.078125l-58.207031 16.421875c-1.246094 13.617187-6.234376 25.277343-15.078126 30.496093l76.660157-20.171874 25.816406-6.777344c24.058594-6.328125 37.859375-33.132813 30.832031-59.855469-2.605468-9.984375-7.765625-18.550781-14.453125-25.019531-11.222656-10.863282-26.722656-15.882813-41.769531-11.914063l-25.816406 6.78125c22.160156-5.785156 45.3125 7.859375 54.238281 31.003907.738281 1.929687 1.390625 3.917968 1.929687 5.957031zm0 0" fill="#c4cccf"/></g><path d="m487.730469 137.515625v-38.195313c10.019531-4.101562 15.90625-12.640624 15.40625-22.886718.578125-11.851563-7.378907-21.433594-20.417969-24.488282l-195.703125-45.765624c-16.882813-4.199219-25.890625-6.179688-35.445313-6.179688-9.535156 0-18.539062 1.980469-35.417968 6.179688l-54.660156 12.777343c-4.035157.945313-6.542969 4.980469-5.597657 9.015625.945313 4.035156 4.980469 6.542969 9.015625 5.597656l54.707032-12.785156c.035156-.011718.070312-.019531.105468-.027344 15.703125-3.90625 23.960938-5.75 31.847656-5.75 7.90625 0 16.167969 1.84375 31.871094 5.75.035156.007813.070313.015626.105469.027344l195.75 45.773438c6.019531 1.410156 9.15625 4.734375 8.835937 9.355468-.023437.34375-.023437.691407 0 1.039063.273438 3.917969-1.953124 6.898437-6.296874 8.574219-.519532-.113282-1.054688-.175782-1.609376-.175782-1.917968 0-3.664062.726563-4.988281 1.90625l-191.785156 44.847657c-16.183594 4-24.085937 5.753906-31.882813 5.753906-7.773437 0-15.675781-1.753906-31.949218-5.777344l-195.777344-45.769531c-6.003906-1.410156-9.128906-4.734375-8.808594-9.359375.023438-.34375.023438-.691406 0-1.039063-.320312-4.621093 2.804688-7.945312 8.800782-9.355468l105.898437-24.761719c4.035156-.941406 6.542969-4.980469 5.597656-9.015625-.941406-4.035156-4.976562-6.539062-9.015625-5.597656l-105.910156 24.761718c-13.007812 3.0625-20.953125 12.640626-20.375 24.488282-.578125 11.851562 7.367188 21.429687 20.386719 24.492187l51.863281 12.125v134.035157c0 22.414062 17.519531 40.769531 39.878906 41.785156 7.085938.332031 14.4375.4375 21.851563.4375 6.453125 0 12.949219-.082032 19.367187-.167969l-71.460937 18.796875s-.003907 0-.007813.003906c-28.042968 7.371094-44.289062 38.363282-36.21875 69.082032 3.875 14.734374 12.714844 27.25 24.894532 35.253906 8.726562 5.730468 18.417968 8.675781 28.167968 8.675781 4.144532 0 8.296875-.53125 12.390625-1.609375h.007813l89.265625-23.488281c4.035156-1.0625 6.445312-5.195313 5.382812-9.230469s-5.191406-6.449219-9.230469-5.386719l-54.902343 14.449219c.46875-.808594.917969-1.628906 1.347656-2.46875 6.683594-12.96875 8.226563-28.222656 4.351563-42.957031s-12.714844-27.253907-24.898438-35.253907c-.785156-.519531-1.578125-1.011718-2.378906-1.480468l131.308594-34.542969c18.820312 3.679687 28.996093 23.941406 32.007812 40.523437 3.363281 18.519532-.789062 35.742188-9.886719 41.5l-44.246093 11.636719c-4.035157 1.0625-6.449219 5.195313-5.386719 9.230469.894531 3.390625 3.953125 5.636719 7.304687 5.636719.636719 0 1.28125-.082031 1.925782-.25l35.316406-9.289063-3.445313 14.328125c-4.921875 21.003907 1.0625 32.6875 6.953125 38.785157 5.628906 5.835937 13.570313 8.925781 22.511719 8.925781 2.636719 0 5.367187-.269531 8.144531-.820313.128906-.023437.261719-.050781.386719-.085937l30.910156-7.792969c18.425781-4.851562 25.191407-14.859375 27.621094-22.394531 3.460937-10.730469.261719-23.171875-8.777344-34.140625-.054687-.0625-.109375-.128906-.164062-.191406l-13.417969-15.214844 90.78125-23.878906c28.03125-7.378907 44.265625-38.367188 36.191406-69.074219-4.089844-15.617188-14.0625-29.027344-27.355468-36.792969-1.441407-.839844-2.90625-1.605469-4.394532-2.300781v-115.09375l38.34375-8.964844v36.109375c-10.292968 4.277344-17.550781 14.4375-17.550781 26.269531v32.792969c0 15.675781 12.746094 28.433594 28.414063 28.433594 15.667968 0 28.414062-12.757813 28.414062-28.4375v-32.789063c0-14.269531-10.558594-26.117187-24.269531-28.128906zm-393.476563 183.941406c6.847656 0 13.703125 2.097657 19.917969 6.179688 9.054687 5.949219 15.65625 15.347656 18.578125 26.464843 2.921875 11.117188 1.796875 22.550782-3.167969 32.195313-4.832031 9.375-12.742187 15.921875-22.28125 18.429687-9.519531 2.503907-19.613281.699219-28.414062-5.082031-9.054688-5.949219-15.652344-15.347656-18.578125-26.464843-5.953125-22.660157 5.460937-45.367188 25.445312-50.625h.007813c2.796875-.734376 5.644531-1.097657 8.492187-1.097657zm117.355469-47.636719h-36.609375c-6.597656 0-13.523438.09375-20.21875.1875-14.0625.191407-28.601562.386719-41.925781-.234374-14.277344-.648438-25.460938-12.375-25.460938-26.691407v-130.496093l128.714844 30.09375c15.53125 3.835937 25.554687 6.191406 35.460937 6.191406 9.933594 0 19.957032-2.355469 35.394532-6.167969l132.300781-30.9375v107.148437c-6.203125-.800781-12.492187-.433593-18.59375 1.175782l-91.054687 23.949218 4.351562-20.488281c.019531-.085937.035156-.167969.050781-.25 2.488281-13.996093-.839843-26.410156-9.136719-34.054687-5.824218-5.367188-16.640624-10.746094-35.058593-5.894532-.066407.019532-.136719.039063-.203125.058594l-30.523438 8.964844c-.085937.023438-.167968.050781-.253906.078125-11.804688 3.929687-20.082031 12.023437-22.710938 22.210937-2.117187 8.207032-1.574218 21.3125 13.042969 37.167969l9.992188 10.738281zm44.144531-11.609374-15.488281-16.648438c-7.789063-8.449219-11.164063-16.660156-9.496094-23.125 1.3125-5.089844 5.949219-9.316406 12.726563-11.601562l30.28125-8.890626c6.507812-1.703124 15.371094-2.644531 20.863281 2.417969 4.34375 4 6.027344 11.535157 4.519531 20.171875l-5.453125 25.664063-.507812 2.160156zm18.234375 10.832031 26.609375-7c18.503906 3.570312 28.425782 22.84375 31.550782 40.011719 3.3125 18.203124-.496094 35.179687-9.078126 41.640624-.632812.167969-1.246093.421876-1.824218.757813l-25.414063 6.683594c4.296875-11.597657 4.730469-25.75 2.445313-38.332031-2.890625-15.902344-10.636719-33.242188-24.289063-43.761719zm67.164063 111.441406c5.554687 6.785156 7.789062 14.175781 5.980468 19.792969-2.308593 7.152344-10.566406 10.703125-17.007812 12.398437l-30.632812 7.722657c-7.078126 1.355468-12.996094.003906-16.679688-3.808594-4.632812-4.800782-5.738281-13.625-3.121094-24.800782l5.335938-22.183593 37.734375-9.921875 1.042969 1.132812zm110.355468-114.230469c5.960938 22.65625-5.445312 45.363282-25.417968 50.621094l-81.554688 21.453125c4.375-11.78125 4.8125-26.175781 2.480469-38.976563-2.855469-15.695312-10.476563-32.808593-23.894531-43.234374l81.394531-21.410157c8.816406-2.320312 18.277344-.910156 26.636719 3.972657 9.851562 5.753906 17.273437 15.800781 20.355468 27.574218zm45.378907-71.820312c0 7.347656-5.964844 13.320312-13.300781 13.320312-7.335938 0-13.300782-5.972656-13.300782-13.320312v-32.789063c0-7.347656 5.964844-13.324219 13.300782-13.324219 7.335937 0 13.300781 5.976563 13.300781 13.324219zm0 0"/></svg>