<svg id="Layer_5" enable-background="new 0 0 64 64" height="512" viewBox="0 0 64 64" width="512" xmlns="http://www.w3.org/2000/svg"><g><g><g><path d="m54 56c2.21 0 4 1.79 4 4v2h-52v-2c0-2.21 1.79-4 4-4h1 12 6 6 6 12z" fill="#969faa"/></g><g><path d="m23 40.15v15.85h-12v-16h12.2z" fill="#ccd1d9"/></g><g><path d="m40.8 40h12.2v16h-12v-15.85z" fill="#ccd1d9"/></g><g><path d="m40.8 40-7.01-5.39c-.51-.4-1.14-.61-1.79-.61s-1.28.21-1.79.61l-7.01 5.39-.2.15v15.85h18v-15.85z" fill="#e6e9ed"/></g><g><path d="m29 48h6v8h-6z" fill="#cf9e76"/></g><g><path d="m15 48h4v4h-4z" fill="#69d6f4"/></g><g><path d="m45 48h4v4h-4z" fill="#69d6f4"/></g><g><circle cx="32" cy="40" fill="#69d6f4" r="2"/></g><g><path d="m50 30 6 10h-3-12.2l-7.01-5.39c-.51-.4-1.14-.61-1.79-.61s-1.28.21-1.79.61l-7.01 5.39h-12.2-3l6-10h7.42 10.58 10.58z" fill="#b4dd7f"/></g><g><path d="m32 2c-8.84 0-16 7.16-16 16 0 4.78 2.1 9.07 5.42 12h21.16c3.32-2.93 5.42-7.22 5.42-12 0-8.84-7.16-16-16-16z" fill="#ffc729"/></g><g><circle cx="32" cy="18" fill="#fcd770" r="12"/></g></g><g><path d="m33 11.142v-2.142h-2v2h-3v4c0 2.206 1.794 4 4 4 1.103 0 2 .897 2 2v2h-2c-1.103 0-2-.897-2-2v-1h-2v1c0 1.859 1.279 3.411 3 3.858v2.142h2v-2h3v-4c0-2.206-1.794-4-4-4-1.103 0-2-.897-2-2v-2h2c1.103 0 2 .897 2 2v1h2v-1c0-1.859-1.279-3.411-3-3.858z"/><path d="m54 55v-14h3.767l-7.2-12h-5.633c2.595-3.055 4.066-6.942 4.066-11 0-9.374-7.626-17-17-17s-17 7.626-17 17c0 4.057 1.471 7.945 4.068 11h-5.634l-7.2 12h3.766v14c-2.757 0-5 2.243-5 5v3h54v-3c0-2.757-2.243-5-5-5zm-2 0h-10v-12.815l3.391 2.608 1.219-1.586-2.87-2.207h8.26zm-18 0h-4v-6h4zm-6-8v8h-4v-14.354l6.815-5.243c.678-.52 1.692-.519 2.368-.001l6.817 5.244v14.354h-4v-8zm-11-29c0-8.271 6.729-15 15-15s15 6.729 15 15c0 4.182-1.761 8.165-4.825 11h-3.279c3.659-2.303 6.104-6.367 6.104-11 0-7.168-5.832-13-13-13s-13 5.832-13 13c0 4.633 2.445 8.697 6.104 11h-3.28c-3.063-2.836-4.824-6.818-4.824-11zm15 11c-6.065 0-11-4.935-11-11s4.935-11 11-11 11 4.935 11 11-4.935 11-11 11zm-17.434 2h34.867l4.8 8h-13.092l-6.739-5.185c-1.373-1.051-3.429-1.052-4.804.001l-6.739 5.184h-13.092zm-2.566 10h8.26l-2.869 2.207 1.219 1.586 3.39-2.608v12.815h-10zm45 20h-50v-1c0-1.654 1.346-3 3-3h44c1.654 0 3 1.346 3 3z"/><path d="m32 37c-1.654 0-3 1.346-3 3s1.346 3 3 3 3-1.346 3-3-1.346-3-3-3zm0 4c-.552 0-1-.448-1-1s.448-1 1-1 1 .448 1 1-.448 1-1 1z"/><path d="m44 53h6v-6h-6zm2-4h2v2h-2z"/><path d="m14 47v6h6v-6zm4 4h-2v-2h2z"/><path d="m51 1h2v2h-2z"/><path d="m51 5h2v2h-2z"/><path d="m53 3h2v2h-2z"/><path d="m49 3h2v2h-2z"/><path d="m59 11h2v2h-2z"/><path d="m59 15h2v2h-2z"/><path d="m61 13h2v2h-2z"/><path d="m57 13h2v2h-2z"/><path d="m53 21h2v2h-2z"/><path d="m53 25h2v2h-2z"/><path d="m55 23h2v2h-2z"/><path d="m51 23h2v2h-2z"/><path d="m11 1h2v2h-2z"/><path d="m11 5h2v2h-2z"/><path d="m9 3h2v2h-2z"/><path d="m13 3h2v2h-2z"/><path d="m3 11h2v2h-2z"/><path d="m3 15h2v2h-2z"/><path d="m1 13h2v2h-2z"/><path d="m5 13h2v2h-2z"/><path d="m9 21h2v2h-2z"/><path d="m9 25h2v2h-2z"/><path d="m7 23h2v2h-2z"/><path d="m11 23h2v2h-2z"/></g></g></svg>