<svg id="filled_outline" height="512" viewBox="0 0 512 512" width="512" xmlns="http://www.w3.org/2000/svg" data-name="filled outline"><path d="m488 448a40 40 0 0 0 -40-40h-120v-344.074a39.925 39.925 0 0 0 -39.926-39.926h-224.074a40 40 0 0 0 -40 40v88h80v296a40 40 0 0 0 40 40h175.491c22.373 0 40.509-17.628 40.509-40z" fill="#e9f6fc"/><path d="m224 408a40 40 0 0 0 -40 40 40 40 0 0 1 -40 40h175.491c22.373 0 40.509-17.628 40.509-40v-40z" fill="#a9edff"/><path d="m448 408a40 40 0 0 1 40 40h-224a40 40 0 0 0 -40-40z" fill="#e9f6fc"/><path d="m64 24a40 40 0 0 1 40 40v88a0 0 0 0 1 0 0h-80a0 0 0 0 1 0 0v-88a40 40 0 0 1 40-40z" fill="#a9edff"/><g fill="#3735c7"><path d="m136 176h32v32h-32z"/><path d="m136 264h32v32h-32z"/><path d="m136 352h32v32h-32z"/></g><path d="m296 63.926v344.074h32v-344.074a39.925 39.925 0 0 0 -39.926-39.926h-32a39.925 39.925 0 0 1 39.926 39.926z" fill="#a9edff"/><path d="m448 408h-32a40 40 0 0 1 40 40h32a40 40 0 0 0 -40-40z" fill="#a9edff"/><rect fill="#fb3260" height="176" rx="24.061" width="272" x="200" y="72"/><path d="m447.939 72h-7.939v119.939a24.06 24.06 0 0 1 -24.061 24.061h-215.939v7.939a24.06 24.06 0 0 0 24.061 24.061h223.878a24.06 24.06 0 0 0 24.061-24.061v-127.878a24.06 24.06 0 0 0 -24.061-24.061z" fill="#f01b4c"/><path d="m200 104h272v32h-272z" fill="#0a0f7d"/><rect fill="#fab645" height="40" rx="13.75" width="56" x="384" y="176"/><path d="m192 360h112v16h-112z" fill="#0a0f7d"/><path d="m192 272h112v16h-112z" fill="#0a0f7d"/><path d="m426.25 168h-28.5a21.775 21.775 0 0 0 -21.75 21.75v12.5a21.775 21.775 0 0 0 21.75 21.75h28.5a21.775 21.775 0 0 0 21.75-21.75v-12.5a21.775 21.775 0 0 0 -21.75-21.75zm5.75 34.25a5.756 5.756 0 0 1 -5.75 5.75h-28.5a5.756 5.756 0 0 1 -5.75-5.75v-12.5a5.756 5.756 0 0 1 5.75-5.75h28.5a5.756 5.756 0 0 1 5.75 5.75z"/><path d="m448 400h-112v-144h111.939a32.1 32.1 0 0 0 32.061-32.061v-127.878a32.1 32.1 0 0 0 -32.061-32.061h-111.939v-.074a47.981 47.981 0 0 0 -47.926-47.926h-224.074a48.055 48.055 0 0 0 -48 48v88a8 8 0 0 0 8 8h72v288a48.055 48.055 0 0 0 48 48h175.491a48.578 48.578 0 0 0 47.747-40h120.762a8 8 0 0 0 8-8 48.055 48.055 0 0 0 -48-48zm-.061-160h-223.878a16.079 16.079 0 0 1 -16.061-16.061v-79.939h256v79.939a16.079 16.079 0 0 1 -16.061 16.061zm-239.939-128h256v16h-256zm256-16h-256a16.078 16.078 0 0 1 16.058-16h223.881a16.078 16.078 0 0 1 16.061 16zm-432-32a32 32 0 0 1 64 0v80h-64zm80 384v-384a47.806 47.806 0 0 0 -12.261-32h188.335a31.962 31.962 0 0 1 31.926 31.926v.074h-95.939a32.1 32.1 0 0 0 -32.061 32.061v127.878a32.1 32.1 0 0 0 32.061 32.061h95.939v144h-96a48.055 48.055 0 0 0 -48 48 32 32 0 0 1 -64 0zm207.491 32h-139.752a47.806 47.806 0 0 0 12.261-32 32 32 0 0 1 64 0 8 8 0 0 0 8 8h86.863a32.561 32.561 0 0 1 -31.372 24zm-48.158-40a47.875 47.875 0 0 0 -11.585-24h188.252a32.057 32.057 0 0 1 30.988 24z"/><path d="m136 216h32a8 8 0 0 0 8-8v-32a8 8 0 0 0 -8-8h-32a8 8 0 0 0 -8 8v32a8 8 0 0 0 8 8zm8-32h16v16h-16z"/><path d="m136 304h32a8 8 0 0 0 8-8v-32a8 8 0 0 0 -8-8h-32a8 8 0 0 0 -8 8v32a8 8 0 0 0 8 8zm8-32h16v16h-16z"/><path d="m176 384v-32a8 8 0 0 0 -8-8h-32a8 8 0 0 0 -8 8v32a8 8 0 0 0 8 8h32a8 8 0 0 0 8-8zm-16-8h-16v-16h16z"/><path d="m192 360h112v16h-112z"/><path d="m192 272h112v16h-112z"/></svg>