<svg id="Layer_3" enable-background="new 0 0 64 64" height="512" viewBox="0 0 64 64" width="512" xmlns="http://www.w3.org/2000/svg"><g><path d="m9 30c-2.209 0-4 1.791-4 4v3h2l1-.375v5.375h8v-5.375l1 .375h2v-3c0-2.209-1.791-4-4-4z" fill="#4472b0"/><path d="m16.814 30.454c-.547-.281-1.157-.454-1.814-.454h-6c-2.209 0-4 1.791-4 4v3h2l1-.375v2.998c4.528-1.119 8.014-4.699 8.814-9.169z" fill="#698ec0"/><path d="m49 26c-2.209 0-4 1.791-4 4v3h2l1-.375v5.375h8v-5.375l1 .375h2v-3c0-2.209-1.791-4-4-4z" fill="#4472b0"/><path d="m8 42h8v12h-8z" fill="#c1c8d1"/><path d="m48 38h8v12h-8z" fill="#c1c8d1"/><path d="m36 28v-5l7-7-3-3-5 5h-6l-5-5-3 3 7 7v5z" fill="#4472b0"/><path d="m28 28h8v16h-8z" fill="#c1c8d1"/><path d="m2 54h20v8h-20z" fill="#f2c351"/><path d="m42 50h20v12h-20z" fill="#e47c6f"/><path d="m22 44h20v18h-20z" fill="#78b75b"/><g fill="#f9d296"><path d="m52 24c-1.657 0-3-1.343-3-3v-2c0-1.657 1.343-3 3-3 1.657 0 3 1.343 3 3v2c0 1.657-1.343 3-3 3z"/><path d="m12 28c-1.657 0-3-1.343-3-3v-2c0-1.657 1.343-3 3-3 1.657 0 3 1.343 3 3v2c0 1.657-1.343 3-3 3z"/><path d="m32 16c-1.657 0-3-1.343-3-3v-2c0-1.657 1.343-3 3-3 1.657 0 3 1.343 3 3v2c0 1.657-1.343 3-3 3z"/></g><path d="m10 6.801c1.271-.636 2.207-1.788 2.569-3.162l.431-1.639.431 1.639c.362 1.374 1.297 2.526 2.568 3.162h.001l-.121.061c-1.201.6-2.105 1.663-2.506 2.945l-.373 1.193-.373-1.194c-.401-1.281-1.305-2.344-2.506-2.945z" fill="#f2c351"/><path d="m48 8.801c1.271-.636 2.207-1.788 2.569-3.162l.431-1.639.431 1.639c.362 1.374 1.297 2.526 2.568 3.162h.001l-.121.061c-1.201.6-2.105 1.663-2.506 2.945l-.373 1.193-.373-1.194c-.401-1.281-1.305-2.344-2.506-2.945z" fill="#f2c351"/><path d="m28 25.758c3.907-.915 7.083-4.453 8.372-9.129l-1.372 1.371h-6l-5-5-3 3 7 7z" fill="#698ec0"/><path d="m56.814 26.454c-.547-.281-1.157-.454-1.814-.454h-6c-2.209 0-4 1.791-4 4v3h2l1-.375v2.998c4.528-1.119 8.014-4.699 8.814-9.169z" fill="#698ec0"/><g><path d="m62 49h-5v-15h2c.553 0 1-.447 1-1v-3c0-2.757-2.243-5-5-5h-3-3c-2.757 0-5 2.243-5 5v3c0 .553.447 1 1 1h2v15h-4v-5c0-.553-.447-1-1-1h-5v-19.586l6.707-6.707c.391-.391.391-1.023 0-1.414l-3-3c-.391-.391-1.023-.391-1.414 0l-4.707 4.707h-2.586-2.586l-4.707-4.707c-.391-.391-1.023-.391-1.414 0l-3 3c-.391.391-.391 1.023 0 1.414l6.707 6.707v19.586h-5c-.553 0-1 .447-1 1v9h-4v-15h2c.553 0 1-.447 1-1v-3c0-2.757-2.243-5-5-5h-3-3c-2.757 0-5 2.243-5 5v3c0 .553.447 1 1 1h2v15h-5c-.553 0-1 .447-1 1v8c0 .553.447 1 1 1h60c.553 0 1-.447 1-1v-12c0-.553-.447-1-1-1zm-13-15.682 3-1.125 3 1.125v3.682h-6zm-2.182-1.318h-.818v-2c0-1.654 1.346-3 3-3h3 3c1.654 0 3 1.346 3 3v2h-.818l-2.333-.875.503-.189-.703-1.873-2.649.994-2.648-.993-.703 1.873.503.189zm2.182 7h6v10h-2v-8h-2v8h-2zm-26.586-23 1.586-1.586 4.293 4.293c.187.188.441.293.707.293h6c.266 0 .52-.105.707-.293l4.293-4.293 1.586 1.586-6.293 6.293c-.188.187-.293.441-.293.707v4h-6v-4c0-.266-.105-.52-.293-.707zm6.586 13h6v14h-2v-10h-2v10h-2zm12 16v16h-18v-16zm-32-7.682 3-1.125 3 1.125v3.682h-6zm-2.182-1.318h-.818v-2c0-1.654 1.346-3 3-3h3 3c1.654 0 3 1.346 3 3v2h-.818l-2.333-.875.503-.189-.703-1.873-2.649.994-2.648-.993-.703 1.873.503.189zm2.182 7h6v10h-2v-8h-2v8h-2zm-6 12h18v6h-18zm58 6h-18v-10h18z"/><path d="m56 21v-2c0-2.206-1.794-4-4-4s-4 1.794-4 4v2c0 2.206 1.794 4 4 4s4-1.794 4-4zm-2 0c0 1.103-.897 2-2 2s-2-.897-2-2v-2c0-1.103.897-2 2-2s2 .897 2 2z"/><path d="m16 25v-2c0-2.206-1.794-4-4-4s-4 1.794-4 4v2c0 2.206 1.794 4 4 4s4-1.794 4-4zm-2 0c0 1.103-.897 2-2 2s-2-.897-2-2v-2c0-1.103.897-2 2-2s2 .897 2 2z"/><path d="m36 13v-2c0-2.206-1.794-4-4-4s-4 1.794-4 4v2c0 2.206 1.794 4 4 4s4-1.794 4-4zm-2 0c0 1.103-.897 2-2 2s-2-.897-2-2v-2c0-1.103.897-2 2-2s2 .897 2 2z"/><path d="m9.553 7.695.121.061c.952.477 1.681 1.332 1.999 2.348l.373 1.194c.13.418.516.702.954.702.437 0 .824-.284.954-.702l.373-1.193c.318-1.017 1.047-1.872 2.002-2.351l.12-.061c.338-.17.551-.516.55-.895-.001-.378-.214-.723-.553-.893-1.013-.507-1.76-1.426-2.048-2.521l-.432-1.64c-.114-.438-.512-.744-.966-.744s-.852.306-.967.745l-.432 1.641c-.288 1.095-1.035 2.014-2.049 2.521-.338.169-.552.515-.552.894s.214.724.553.894zm3.447-2.458c.316.578.728 1.099 1.215 1.542-.478.412-.889.899-1.215 1.439-.326-.54-.737-1.026-1.215-1.438.487-.444.899-.965 1.215-1.543z"/><path d="m47.553 9.695.121.061c.952.477 1.681 1.332 1.999 2.348l.373 1.194c.13.418.516.702.954.702.437 0 .824-.284.954-.702l.373-1.193c.318-1.017 1.047-1.872 2.002-2.351l.12-.061c.338-.17.551-.516.55-.895-.001-.378-.214-.723-.553-.893-1.013-.507-1.76-1.426-2.048-2.521l-.432-1.64c-.114-.438-.512-.744-.966-.744s-.852.306-.967.745l-.432 1.641c-.288 1.095-1.035 2.014-2.049 2.521-.338.169-.552.515-.552.894s.214.724.553.894zm3.447-2.458c.316.578.728 1.099 1.215 1.542-.478.412-.889.899-1.215 1.439-.326-.54-.737-1.026-1.215-1.438.487-.444.899-.965 1.215-1.543z"/></g></g></svg>