<?xml version="1.0" encoding="iso-8859-1"?>
<!-- Generator: Adobe Illustrator 19.0.0, SVG Export Plug-In . SVG Version: 6.00 Build 0)  -->
<svg version="1.1" id="Capa_1" xmlns="http://www.w3.org/2000/svg" xmlns:xlink="http://www.w3.org/1999/xlink" x="0px" y="0px"
	 viewBox="0 0 496 496" style="enable-background:new 0 0 496 496;" xml:space="preserve">
<path style="fill:#FFEAA7;" d="M96,288L96,288c34.68-59.448,98.32-96,167.136-96h0.568c69.44,0,133.552,37.208,168,97.496L440,304
	l21.264,3.544c15.424,2.568,26.736,15.92,26.736,31.568V448H8V344.056c0-23.2,16.592-43.08,39.416-47.224L96,288z"/>
<rect x="8" y="424" style="fill:#FFC729;" width="480" height="24"/>
<circle style="fill:#8C95A4;" cx="384" cy="432" r="56"/>
<path style="fill:#798699;" d="M384,464c-26.808,0-49.184-18.848-54.68-44c-0.848,3.872-1.32,7.88-1.32,12c0,30.928,25.072,56,56,56
	s56-25.072,56-56c0-4.12-0.472-8.128-1.32-12C433.184,445.152,410.808,464,384,464z"/>
<circle style="fill:#8C95A4;" cx="112" cy="432" r="56"/>
<path style="fill:#798699;" d="M112,464c-26.808,0-49.184-18.848-54.68-44c-0.848,3.872-1.32,7.88-1.32,12c0,30.928,25.072,56,56,56
	s56-25.072,56-56c0-4.12-0.472-8.128-1.32-12C161.184,445.152,138.808,464,112,464z"/>
<g>
	<circle style="fill:#ECECEC;" cx="384" cy="432" r="24"/>
	<circle style="fill:#ECECEC;" cx="112" cy="432" r="24"/>
</g>
<path style="fill:#B6C1CE;" d="M24,328H10.768C8.928,335.536,8,343.256,8,351.016V368h16c8.84,0,16-7.16,16-16v-8
	C40,335.16,32.84,328,24,328z"/>
<path style="fill:#ECECEC;" d="M136,320h256v-30.952C363.336,248.792,316.624,224,265.88,224l0,0
	c-52.648,0-101.44,26.752-129.88,70.592V320z"/>
<circle style="fill:#FEA82F;" cx="280" cy="104" r="96"/>
<path style="fill:#FF8031;" d="M280,176c-48.944,0-89.256-36.656-95.168-84c-0.496,3.936-0.832,7.928-0.832,12
	c0,53.016,42.984,96,96,96s96-42.984,96-96c0-4.072-0.336-8.064-0.832-12C369.256,139.344,328.944,176,280,176z"/>
<path style="fill:#B6C1CE;" d="M144,288h24c8.84,0,16,7.16,16,16v16h-48v-24L144,288z"/>
<path d="M112,400c-17.648,0-32,14.352-32,32s14.352,32,32,32s32-14.352,32-32S129.648,400,112,400z M112,448
	c-8.824,0-16-7.176-16-16s7.176-16,16-16s16,7.176,16,16S120.824,448,112,448z"/>
<path d="M384,400c-17.648,0-32,14.352-32,32s14.352,32,32,32s32-14.352,32-32S401.648,400,384,400z M384,448
	c-8.824,0-16-7.176-16-16s7.176-16,16-16s16,7.176,16,16S392.824,448,384,448z"/>
<path d="M280,64c8.824,0,16,7.176,16,16h16c0-14.864-10.232-27.288-24-30.864V32h-16v17.136c-13.768,3.576-24,16-24,30.864
	c0,17.648,14.352,32,32,32c8.824,0,16,7.176,16,16s-7.176,16-16,16s-16-7.176-16-16h-16c0,14.864,10.232,27.288,24,30.864V176h16
	v-17.136c13.768-3.576,24-16,24-30.864c0-17.648-14.352-32-32-32c-8.824,0-16-7.176-16-16S271.176,64,280,64z"/>
<path d="M496,339.112c0-19.632-14.056-36.224-33.432-39.456l-18.728-3.12c-23.168-47.528-64.632-84.08-114.056-101.368
	c3.56-1.96,7.064-4.064,10.416-6.456l-9.28-13.032c-15,10.672-32.6,16.32-50.92,16.32c-48.52,0-88-39.48-88-88s39.48-88,88-88
	s88,39.48,88,88c0,18.312-5.648,35.92-16.328,50.928l13.032,9.28C377.328,146.48,384,125.656,384,104C384,46.656,337.344,0,280,0
	S176,46.656,176,104c0,35.088,17.512,66.112,44.208,84.952c-52.68,11.832-98.96,44.808-127.272,91.472l-46.952,8.536
	C27.8,292.272,13.2,304.208,5.648,320h-1.16l-1.496,6.104c-0.056,0.24-0.072,0.488-0.128,0.728C1.088,332.296,0,338.056,0,344.056
	v6.952V376v80h52.712c9.52,23.424,32.488,40,59.288,40s49.768-16.576,59.288-40h153.424c9.52,23.424,32.488,40,59.288,40
	s49.768-16.576,59.288-40H496V339.112z M24,336c4.416,0,8,3.592,8,8v8c0,4.408-3.584,8-8,8h-8v-8.992
	c0-5.024,0.432-10.048,1.272-15.008H24z M16,440v-32h36.712C49.696,415.416,48,423.512,48,432c0,2.712,0.224,5.376,0.552,8H16z
	 M112,480c-26.472,0-48-21.528-48-48s21.528-48,48-48s48,21.528,48,48S138.472,480,112,480z M175.448,440
	c0.328-2.624,0.552-5.288,0.552-8c0-8.488-1.696-16.584-4.712-24H280v-16H161.88c-11.744-14.608-29.72-24-49.88-24
	s-38.144,9.392-49.88,24H16v-16h8c13.232,0,24-10.768,24-24v-8c0-13.176-10.672-23.888-23.824-23.984
	c5.88-7.776,14.48-13.456,24.672-15.312l47.696-8.672l5.656,0.264l2.44-4.208c29.216-50.56,81.072-84.384,138.912-90.808
	C254.912,205.552,267.16,208,280,208c8.688,0,17.224-1.12,25.496-3.224c55.096,12.72,102.024,50.888,125.744,102.488l2.032,4.424
	l4.856,0.232l21.816,3.512C471.56,317.368,480,327.328,480,339.112V392h-46.12c-11.744-14.608-29.72-24-49.88-24
	s-38.144,9.392-49.88,24H296v16h28.712c-3.016,7.416-4.712,15.512-4.712,24c0,2.712,0.224,5.376,0.552,8H175.448z M384,480
	c-26.472,0-48-21.528-48-48s21.528-48,48-48s48,21.528,48,48S410.472,480,384,480z M447.448,440c0.328-2.624,0.552-5.288,0.552-8
	c0-8.488-1.696-16.584-4.712-24H480v32H447.448z"/>
<path d="M400,286.488l-1.488-2.08C368.016,241.576,318.432,216,265.872,216c-55.368,0-106.432,27.752-136.584,74.232L128,292.224
	V328h272V286.488z M265.872,232c7.464,0,14.848,0.632,22.128,1.752V312h-96v-8c0-13.232-10.768-24-24-24h-10.624
	C184.952,249.632,224.032,232,265.872,232z M144,296.992c0.232-0.336,0.48-0.656,0.712-0.992H168c4.416,0,8,3.592,8,8v8h-32V296.992
	z M384,312h-80v-74.88c31.712,8.56,60.112,27.584,80,54.52V312z"/>
<rect x="208" y="96" width="16" height="16"/>
<rect x="336" y="96" width="16" height="16"/>
<g>
</g>
<g>
</g>
<g>
</g>
<g>
</g>
<g>
</g>
<g>
</g>
<g>
</g>
<g>
</g>
<g>
</g>
<g>
</g>
<g>
</g>
<g>
</g>
<g>
</g>
<g>
</g>
<g>
</g>
</svg>
