<svg id="Layer_1" enable-background="new 0 0 512 512" height="512" viewBox="0 0 512 512" width="512" xmlns="http://www.w3.org/2000/svg"><g id="XMLID_1114_"><path id="XMLID_1113_" d="m10 44.172c90.321-45.557 197.068-45.608 287.363 0v132.938c0 84.991-60.247 158.055-143.681 174.247-83.435-16.193-143.682-89.257-143.682-174.247z" fill="#79b2ff"/><path id="XMLID_1112_" d="m153.63 237.572c22.208 0 42.828 6.794 59.901 18.413-.642-32.543-27.204-58.731-59.901-58.731-32.696 0-59.259 26.188-59.901 58.731 17.073-11.619 37.692-18.413 59.901-18.413z" fill="#fff"/><path id="XMLID_1110_" d="m214.637 194.801c90.321-45.557 197.068-45.608 287.363 0v132.937c0 84.991-60.247 158.055-143.681 174.247-83.434-16.192-143.681-89.256-143.681-174.247v-132.937z" fill="#ffcb7c"/><path id="XMLID_1106_" d="m358.267 371.376c-22.208 0-42.828-6.794-59.901-18.413.642 32.543 27.204 58.731 59.901 58.731 32.696 0 59.259-26.188 59.901-58.731-17.073 11.618-37.693 18.413-59.901 18.413z" fill="#fff"/><g id="XMLID_1231_"><path id="XMLID_1233_" d="m221.842 136.743c15.061 0 29.219-5.865 39.867-16.514 3.905-3.905 3.905-10.237 0-14.142-3.906-3.905-10.236-3.905-14.143 0-6.871 6.871-16.007 10.655-25.725 10.655-9.717 0-18.854-3.784-25.725-10.656-3.906-3.905-10.236-3.905-14.143 0-3.905 3.905-3.905 10.237 0 14.142 10.651 10.651 24.809 16.515 39.869 16.515z"/><path id="XMLID_1235_" d="m90.947 116.743c-9.718 0-18.854-3.784-25.725-10.655-3.905-3.905-10.235-3.905-14.143 0-3.905 3.905-3.905 10.237 0 14.142 10.648 10.649 24.807 16.514 39.867 16.514s29.218-5.864 39.867-16.513c3.905-3.905 3.905-10.237 0-14.142s-10.235-3.905-14.143 0c-6.869 6.87-16.006 10.654-25.723 10.654z"/><path id="XMLID_1411_" d="m506.509 185.875c-45.672-23.069-96.895-35.262-148.141-35.262-.012 0-.028 0-.041 0-17.055.002-34.11 1.363-50.964 4.017v-110.458c0-3.773-2.124-7.225-5.491-8.926-32.058-16.191-66.35-26.958-101.926-32.001-5.461-.778-10.529 3.029-11.305 8.497-.774 5.468 3.029 10.53 8.498 11.305 31.386 4.45 61.707 13.642 90.224 27.346v108.016c-26.759 5.914-52.785 15.134-77.23 27.464-3.37 1.7-5.496 5.154-5.496 8.929v14.572c-.663-.707-1.334-1.408-2.029-2.091-13.149-12.915-30.543-20.027-48.978-20.027s-35.828 7.112-48.978 20.027c-13.129 12.894-20.559 30.121-20.921 48.506-.073 3.74 1.946 7.208 5.234 8.99 3.291 1.783 7.298 1.579 10.39-.525 16.034-10.913 34.802-16.681 54.274-16.681 18.166 0 35.715 5.024 51.007 14.557v59.457c-15.792 9.276-32.898 15.855-50.955 19.573-77.577-15.99-133.681-84.67-133.681-164.05v-126.714c28.514-13.685 58.819-22.872 90.176-27.33 5.468-.777 9.271-5.84 8.493-11.308-.777-5.468-5.848-9.269-11.308-8.493-35.54 5.053-69.812 15.812-101.864 31.978-3.371 1.701-5.497 5.154-5.497 8.929v132.938c0 89.586 63.831 166.996 151.776 184.064.629.122 1.268.183 1.905.183s1.276-.061 1.905-.183c17.445-3.386 34.117-9.147 49.759-17.164 7.184 82.547 68.495 151.767 151.067 167.793.629.122 1.268.183 1.905.183s1.276-.061 1.905-.183c87.947-17.069 151.778-94.479 151.778-184.065v-132.937c0-3.773-2.124-7.225-5.491-8.926zm-352.879 41.697c-15.799 0-31.218 3.148-45.511 9.216 7.868-17.359 25.414-29.534 45.511-29.534s37.643 12.174 45.511 29.534c-14.293-6.068-29.712-9.216-45.511-9.216zm338.37 100.166c0 79.38-56.104 148.061-133.682 164.049-77.577-15.989-133.682-84.669-133.682-164.049v-126.712c84.22-40.382 183.259-40.384 267.363-.004v126.716z"/><path id="XMLID_1535_" d="m321.309 284.443c1.953 1.953 4.512 2.929 7.071 2.929s5.118-.976 7.071-2.929c3.905-3.905 3.905-10.237 0-14.143-21.981-21.981-57.751-21.982-79.734 0-3.905 3.905-3.905 10.237 0 14.142 3.906 3.906 10.236 3.906 14.143 0 14.184-14.184 37.266-14.183 51.449.001z"/><path id="XMLID_1536_" d="m393.684 287.371c2.56 0 5.118-.976 7.071-2.929 14.183-14.184 37.265-14.186 51.449 0 3.906 3.905 10.238 3.905 14.143 0s3.905-10.237 0-14.142c-21.984-21.982-57.752-21.98-79.734 0-3.905 3.905-3.905 10.237 0 14.143 1.952 1.952 4.511 2.928 7.071 2.928z"/><path id="XMLID_1541_" d="m422.931 344.17c-3.29-1.782-7.298-1.579-10.39.525-16.034 10.913-34.802 16.681-54.274 16.681s-38.24-5.768-54.274-16.68c-3.092-2.104-7.099-2.308-10.39-.525-3.288 1.782-5.308 5.25-5.234 8.99.362 18.386 7.792 35.612 20.921 48.506 13.149 12.915 30.543 20.027 48.978 20.027s35.828-7.112 48.978-20.027c13.129-12.894 20.559-30.121 20.921-48.506.071-3.741-1.948-7.21-5.236-8.991zm-64.664 57.523c-20.097 0-37.643-12.174-45.511-29.534 14.293 6.068 29.712 9.216 45.511 9.216s31.218-3.148 45.511-9.216c-7.869 17.36-25.415 29.534-45.511 29.534z"/><path id="XMLID_1542_" d="m153.66 20.015c2.63 0 5.199-1.07 7.069-2.93 1.86-1.86 2.92-4.44 2.92-7.07 0-2.64-1.06-5.22-2.92-7.07-1.87-1.87-4.439-2.93-7.069-2.93-2.641 0-5.21 1.06-7.08 2.93-1.86 1.86-2.931 4.43-2.931 7.07 0 2.63 1.07 5.2 2.931 7.07 1.859 1.86 4.44 2.93 7.08 2.93z"/></g></g></svg>